<svg xmlns="http://www.w3.org/2000/svg" viewBox="0 0 584.78 139.47"><defs><style>.cls-1{fill:#3c3c3b;}.cls-2{fill:#2fac66;}</style></defs><g id="Capa_2" data-name="Capa 2"><g id="Capa_1-2" data-name="Capa 1"><g id="Imagotipo_Soso"><path class="cls-1" d="M175.1,139.47H140V106.24h18.53c3.54,0,5.44-1.37,5.44-5.18V38.41c0-3.81-1.9-5.16-5.44-5.16H36.24c-3.54,0-5.45,1.35-5.45,5.16v62.65c0,3.81,1.91,5.18,5.45,5.18H80.92V78.17h29.43v61.3H19.61C8.72,139.47,0,131.3,0,119.3V20.17C0,8.44,8.72,0,19.61,0H175.1c11.17,0,19.63,8.44,19.63,20.17V119.3C194.73,131.3,186.27,139.47,175.1,139.47Z"/><rect class="cls-2" x="81.1" y="41.74" width="29.43" height="27.94"/><path class="cls-1" d="M259.33,5.83V31.08a5.75,5.75,0,0,1-6,5.83H234.4V56.66h-9.88V0h28.82A5.7,5.7,0,0,1,259.33,5.83ZM247.91,9.15H234.4V27.68h13.51c1.14,0,1.54-.57,1.54-1.54V10.76C249.45,9.71,249.05,9.15,247.91,9.15Z"/><path class="cls-1" d="M276.15,9.15V23.63h17v9.23h-17V47.51h22.74v9.15H266.28V0h32.61V9.15Z"/><path class="cls-1" d="M342.75,5.83V24.69c0,2.59-1.37,4.45-4.21,5.18A4.83,4.83,0,0,1,342.75,35v21.7h-9.87V36.26c0-1.22-.57-1.86-1.78-1.86h-15V56.66h-9.88V0h30.51A5.75,5.75,0,0,1,342.75,5.83ZM331.34,9.15H316.13v16.1h15c1.21,0,1.78-.65,1.78-1.86V10.76C332.88,9.71,332.47,9.15,331.34,9.15Z"/><path class="cls-1" d="M351.08,0H361V56.66h-9.87Z"/><path class="cls-1" d="M418.9,56.66H409V17.16L398.18,49.53h-8.5L379.16,18.29V56.66h-9.87V0h13.43l11.17,33.91L405.06,0H418.9Z"/><path class="cls-1" d="M436.86,9.15V23.63h17v9.23h-17V47.51H459.6v9.15H427V0H459.6V9.15Z"/><path class="cls-1" d="M502,9.15H488.81V56.66h-9.88V9.15H465.58V0H502Z"/><path class="cls-1" d="M518.18,9.15V23.63h17v9.23h-17V47.51h22.74v9.15H508.31V0h32.61V9.15Z"/><path class="cls-1" d="M584.78,5.83V24.69c0,2.59-1.38,4.45-4.21,5.18A4.84,4.84,0,0,1,584.78,35v21.7h-9.87V36.26c0-1.22-.57-1.86-1.78-1.86h-15V56.66h-9.87V0h30.51A5.75,5.75,0,0,1,584.78,5.83ZM573.37,9.15H558.15v16.1h15c1.21,0,1.78-.65,1.78-1.86V10.76C574.91,9.71,574.5,9.15,573.37,9.15Z"/><path class="cls-1" d="M260.78,88.64V99.08h-9.87v-5.5c0-1-.41-1.62-1.54-1.62h-13.6c-1.13,0-1.53.57-1.53,1.62v35.13c0,1,.4,1.62,1.53,1.62h13.6c1.13,0,1.54-.57,1.54-1.62V115.43h-8.34v-8.74h18.21v26.95a5.74,5.74,0,0,1-6,5.83H230.35a5.79,5.79,0,0,1-6-5.83v-45a5.74,5.74,0,0,1,6-5.82h24.44A5.69,5.69,0,0,1,260.78,88.64Z"/><path class="cls-1" d="M305.13,82.82v50.82a5.75,5.75,0,0,1-6,5.83H274.69a5.78,5.78,0,0,1-6-5.83V82.82h9.87v45.89c0,1,.4,1.62,1.54,1.62h13.6c1.13,0,1.53-.57,1.53-1.62V82.82Z"/><path class="cls-1" d="M340.73,126.85H323.81l-3.48,12.62h-10L327,82.82h10.6l16.68,56.65h-10Zm-2.51-9.15-5.91-21.77-6,21.77Z"/><path class="cls-1" d="M395.92,88.64V107.5c0,2.59-1.38,4.45-4.21,5.18a4.85,4.85,0,0,1,4.21,5.1v21.69H386V119.08c0-1.22-.56-1.87-1.78-1.87h-15v22.26h-9.87V82.82h30.51A5.74,5.74,0,0,1,395.92,88.64ZM384.5,92H369.29v16.11h15c1.22,0,1.78-.65,1.78-1.86V93.58C386,92.53,385.64,92,384.5,92Z"/><path class="cls-1" d="M440.42,88.64v45a5.74,5.74,0,0,1-6,5.83H404V82.82h30.43A5.69,5.69,0,0,1,440.42,88.64ZM429,92H413.88v38.37H429c1.13,0,1.54-.57,1.54-1.62V93.58C430.55,92.53,430.14,92,429,92Z"/><path class="cls-1" d="M448.59,82.82h9.87v56.65h-9.87Z"/><path class="cls-1" d="M494.31,126.85H477.4l-3.48,12.62h-10l16.67-56.65h10.61l16.67,56.65h-10Zm-2.51-9.15-5.9-21.77-6,21.77Z"/><path class="cls-1" d="M551.85,82.82v56.65H540.68l-18-37.31v37.31H513V82.82h11.33l17.81,37.06V82.82Z"/></g></g></g></svg>